<?xml version="1.0" encoding="UTF-8"?>
<!DOCTYPE svg PUBLIC "-//W3C//DTD SVG 1.1//EN" "http://www.w3.org/Graphics/SVG/1.1/DTD/svg11.dtd">
<!-- Creator: CorelDRAW 2021 (64-Bit) -->
<svg xmlns="http://www.w3.org/2000/svg" xml:space="preserve" width="89px" height="64px" version="1.1" style="shape-rendering:geometricPrecision; text-rendering:geometricPrecision; image-rendering:optimizeQuality; fill-rule:evenodd; clip-rule:evenodd"
viewBox="0 0 63.76 45.61"
 xmlns:xlink="http://www.w3.org/1999/xlink"
 xmlns:xodm="http://www.corel.com/coreldraw/odm/2003">
 <defs>
  <style type="text/css">
   <![CDATA[
    .fil0 {fill:#1E6620}
   ]]>
  </style>
 </defs>
 <g id="Layer_x0020_1">
  <metadata id="CorelCorpID_0Corel-Layer"/>
  <g id="surface1">
   <path class="fil0" d="M32.74 0l30.86 0 0 38.95 -30.86 0 0 -38.95zm0.61 10.16l0 18.63 20.12 0 0 -18.63 -20.12 0zm0 0z"/>
   <path class="fil0" d="M0 0l30.37 0 0 10.16 -29.77 0 0 4.24 29.77 0 0 10.15 -29.77 0 0 4.24 29.77 0 0 10.16 -30.37 0 0 -38.95zm0 0z"/>
   <path class="fil0" d="M0 0l30.37 0 0 10.16 -29.77 0 0 4.24 29.77 0 0 10.15 -29.77 0 0 4.24 29.77 0 0 10.16 -30.37 0 0 -38.95zm0 0z"/>
   <path class="fil0" d="M0 0l30.37 0 0 10.16 -29.77 0 0 4.24 29.77 0 0 10.15 -29.77 0 0 4.24 29.77 0 0 10.16 -30.37 0 0 -38.95zm0 0z"/>
   <path class="fil0" d="M0.06 45.48l2.06 -5.21 0.72 0 2.04 5.21 -0.8 0 -0.56 -1.44 -2.21 0 -0.57 1.44 -0.68 0zm1.47 -2l1.77 0 -0.88 -2.24 -0.89 2.24zm6.36 2l0 -5.21 1.57 0c0.58,0 0.98,0.13 1.21,0.39 0.22,0.26 0.33,0.56 0.33,0.9 0,0.2 -0.04,0.39 -0.12,0.59 -0.08,0.19 -0.18,0.36 -0.33,0.51 -0.15,0.15 -0.34,0.28 -0.59,0.38l1.72 2.44 -0.9 0 -1.47 -2.2 -0.68 0 0 2.2 -0.74 0zm0.74 -2.76l0.24 0c0.54,0 0.9,-0.11 1.09,-0.34 0.19,-0.22 0.29,-0.48 0.29,-0.75 0,-0.16 -0.04,-0.3 -0.11,-0.42 -0.07,-0.12 -0.18,-0.22 -0.33,-0.28 -0.15,-0.08 -0.39,-0.11 -0.72,-0.11l-0.46 0 0 1.9 0 0zm9.98 2.49c-0.21,0.11 -0.4,0.2 -0.56,0.25 -0.17,0.05 -0.35,0.08 -0.53,0.11 -0.18,0.02 -0.37,0.04 -0.59,0.04 -0.87,0 -1.51,-0.26 -1.91,-0.78 -0.41,-0.52 -0.61,-1.17 -0.61,-1.95 0,-0.8 0.21,-1.46 0.63,-1.97 0.42,-0.52 1.06,-0.77 1.94,-0.77 0.46,0 1,0.07 1.63,0.23l0 0.69c-0.52,-0.18 -0.89,-0.29 -1.08,-0.32 -0.2,-0.03 -0.39,-0.05 -0.57,-0.05 -0.62,0 -1.07,0.22 -1.35,0.64 -0.28,0.42 -0.42,0.94 -0.42,1.55 0,0.65 0.16,1.16 0.48,1.56 0.33,0.39 0.78,0.59 1.37,0.59 0.17,0 0.33,-0.01 0.49,-0.04 0.16,-0.03 0.33,-0.07 0.49,-0.13 0.16,-0.06 0.36,-0.16 0.6,-0.28l0 0.63 -0.01 0zm3.34 0.27l0 -5.21 0.74 0 0 2.19 2.46 0 0 -2.19 0.74 0 0 5.21 -0.74 0 0 -2.46 -2.46 0 0 2.46 -0.74 0zm7.55 0l0 -5.21 0.74 0 0 5.21 -0.74 0zm5.58 0l0 -4.66 -1.84 0 0 -0.55 4.42 0 0 0.55 -1.84 0 0 4.66 -0.74 0zm5.58 0l0 -5.21 2.92 0 0 0.55 -2.18 0 0 1.66 1.83 0 0 0.56 -1.83 0 0 1.88 2.33 0 0 0.56 -3.07 0 0 0zm10.07 -0.27c-0.21,0.11 -0.4,0.2 -0.57,0.25 -0.16,0.05 -0.34,0.08 -0.52,0.11 -0.18,0.02 -0.38,0.04 -0.59,0.04 -0.87,0 -1.51,-0.26 -1.92,-0.78 -0.4,-0.52 -0.6,-1.17 -0.6,-1.95 0,-0.8 0.21,-1.46 0.63,-1.97 0.42,-0.52 1.06,-0.77 1.93,-0.77 0.47,0 1.01,0.07 1.64,0.23l0 0.69c-0.53,-0.18 -0.89,-0.29 -1.09,-0.32 -0.19,-0.03 -0.38,-0.05 -0.56,-0.05 -0.62,0 -1.07,0.22 -1.35,0.64 -0.28,0.42 -0.42,0.94 -0.42,1.55 0,0.65 0.16,1.16 0.48,1.56 0.32,0.39 0.78,0.59 1.37,0.59 0.17,0 0.33,-0.01 0.49,-0.04 0.16,-0.03 0.32,-0.07 0.48,-0.13 0.16,-0.06 0.37,-0.16 0.6,-0.28l0 0.63zm4.57 0.27l0 -4.66 -1.84 0 0 -0.55 4.42 0 0 0.55 -1.84 0 0 4.66 -0.74 0zm5.28 -0.11l0 -0.73c0.42,0.2 0.72,0.31 0.92,0.35 0.19,0.04 0.37,0.06 0.53,0.06 0.31,0 0.54,-0.07 0.71,-0.24 0.18,-0.16 0.26,-0.36 0.26,-0.59 0,-0.16 -0.04,-0.32 -0.13,-0.47 -0.1,-0.14 -0.32,-0.32 -0.69,-0.53l-0.36 -0.2c-0.48,-0.28 -0.8,-0.53 -0.96,-0.75 -0.17,-0.22 -0.25,-0.47 -0.25,-0.75 0,-0.25 0.06,-0.48 0.2,-0.69 0.13,-0.22 0.31,-0.39 0.53,-0.51 0.21,-0.12 0.49,-0.18 0.83,-0.18 0.4,0 0.82,0.06 1.27,0.2l0 0.68c-0.39,-0.15 -0.66,-0.25 -0.8,-0.28 -0.15,-0.03 -0.29,-0.05 -0.43,-0.05 -0.31,0 -0.53,0.08 -0.68,0.24 -0.14,0.15 -0.21,0.31 -0.21,0.48 0,0.11 0.03,0.22 0.1,0.34 0.07,0.11 0.16,0.21 0.28,0.3 0.11,0.08 0.27,0.18 0.47,0.29l0.38 0.22c0.48,0.27 0.8,0.52 0.96,0.75 0.17,0.23 0.25,0.5 0.25,0.79 0,0.41 -0.16,0.76 -0.46,1.06 -0.32,0.3 -0.77,0.45 -1.37,0.45 -0.19,0 -0.37,-0.01 -0.54,-0.04 -0.18,-0.03 -0.45,-0.09 -0.81,-0.2zm0 0z"/>
  </g>
 </g>
</svg>
